<svg xmlns="http://www.w3.org/2000/svg" viewBox="0 0 1440 320"><path fill="#616161" fill-opacity="1" d="M0,128L0,64L40,64L40,32L80,32L80,96L120,96L120,256L160,256L160,256L200,256L200,128L240,128L240,288L280,288L280,128L320,128L320,96L360,96L360,192L400,192L400,224L440,224L440,192L480,192L480,128L520,128L520,192L560,192L560,192L600,192L600,288L640,288L640,64L680,64L680,128L720,128L720,64L760,64L760,288L800,288L800,32L840,32L840,224L880,224L880,224L920,224L920,192L960,192L960,160L1000,160L1000,288L1040,288L1040,96L1080,96L1080,32L1120,32L1120,192L1160,192L1160,160L1200,160L1200,256L1240,256L1240,96L1280,96L1280,224L1320,224L1320,288L1360,288L1360,64L1400,64L1400,96L1440,96L1440,0L1400,0L1400,0L1360,0L1360,0L1320,0L1320,0L1280,0L1280,0L1240,0L1240,0L1200,0L1200,0L1160,0L1160,0L1120,0L1120,0L1080,0L1080,0L1040,0L1040,0L1000,0L1000,0L960,0L960,0L920,0L920,0L880,0L880,0L840,0L840,0L800,0L800,0L760,0L760,0L720,0L720,0L680,0L680,0L640,0L640,0L600,0L600,0L560,0L560,0L520,0L520,0L480,0L480,0L440,0L440,0L400,0L400,0L360,0L360,0L320,0L320,0L280,0L280,0L240,0L240,0L200,0L200,0L160,0L160,0L120,0L120,0L80,0L80,0L40,0L40,0L0,0L0,0Z"></path></svg>