<svg xmlns="http://www.w3.org/2000/svg" viewBox="0 0 1440 320"><path fill="#3399ff" fill-opacity="0.8" d="M0,256L0,160L40,160L40,64L80,64L80,64L120,64L120,256L160,256L160,64L200,64L200,192L240,192L240,64L280,64L280,288L320,288L320,224L360,224L360,0L400,0L400,160L440,160L440,64L480,64L480,256L520,256L520,192L560,192L560,96L600,96L600,288L640,288L640,64L680,64L680,128L720,128L720,32L760,32L760,320L800,320L800,32L840,32L840,32L880,32L880,64L920,64L920,160L960,160L960,320L1000,320L1000,320L1040,320L1040,0L1080,0L1080,32L1120,32L1120,160L1160,160L1160,32L1200,32L1200,192L1240,192L1240,224L1280,224L1280,160L1320,160L1320,96L1360,96L1360,128L1400,128L1400,96L1440,96L1440,0L1400,0L1400,0L1360,0L1360,0L1320,0L1320,0L1280,0L1280,0L1240,0L1240,0L1200,0L1200,0L1160,0L1160,0L1120,0L1120,0L1080,0L1080,0L1040,0L1040,0L1000,0L1000,0L960,0L960,0L920,0L920,0L880,0L880,0L840,0L840,0L800,0L800,0L760,0L760,0L720,0L720,0L680,0L680,0L640,0L640,0L600,0L600,0L560,0L560,0L520,0L520,0L480,0L480,0L440,0L440,0L400,0L400,0L360,0L360,0L320,0L320,0L280,0L280,0L240,0L240,0L200,0L200,0L160,0L160,0L120,0L120,0L80,0L80,0L40,0L40,0L0,0L0,0Z"></path></svg>